<svg xmlns="http://www.w3.org/2000/svg" width="150" height="146" viewBox="587 419 150 146">
  <path d="M662.008 421C702.383 421 735 452.851 735 492.016C735 531.162 702.4 562.975 662.036 563H604.055C595.703 563 589.03 556.437 589.014 548.442L589.01 546.447H589V493.953H589.013L589.014 491.954C589.04 452.816 621.65 421 662.008 421Z" fill="black" stroke="#A4133C" stroke-width="4"/>
  <path d="M677.192 448.957C665.501 448.957 655.174 457.541 653.744 468.803C653.648 469.745 653.62 470.423 653.614 471.278L653.628 517.323C653.628 526.156 646.85 532.167 638.38 532.167C629.898 532.167 623.066 525.557 623.066 517.309C623.205 508.255 630.636 502.511 639.304 502.261H639.349L648.149 502.182V490.025L639.349 490.089C623.574 489.951 611.051 501.999 610.594 517.315C610.594 532.209 623.142 544.353 638.376 544.353C652.746 544.353 664.704 533.404 666.01 519.703C666.199 515.04 666.108 508.886 666.108 508.886C666.134 506.352 666.068 507.261 666.094 502.229L677.008 502.152C685.454 502.21 685.359 489.801 676.911 489.972L666.092 490.051C666.092 483.805 666.193 477.597 666.092 471.342C666.1 465.931 671.353 461.151 677.182 461.151C683.013 461.151 689.181 463.989 689.181 471.342C689.181 472.392 689.159 473.003 689.099 473.392C688.448 476.802 690.838 480.063 694.357 480.555C697.876 481.041 701.107 478.561 701.455 475.112C701.657 473.749 701.649 472.546 701.649 471.344C701.649 458.378 689.768 448.981 677.184 448.981L677.192 448.957Z" fill="#A4133C"/>
</svg>
